<svg xmlns="http://www.w3.org/2000/svg" viewBox="0 0 101.57 92.09"><defs><style>.cls-1{fill:#ffd345;}.cls-1,.cls-3{stroke:#5b2510;stroke-miterlimit:10;stroke-width:0.71px;}.cls-2,.cls-5{fill:#ff8039;}.cls-2{opacity:0.48;}.cls-3{fill:#10a956;}.cls-4{fill:#5b2510;}.cls-6{fill:#fef8fc;}</style></defs><g id="Layer_2" data-name="Layer 2"><g id="Chat_Bot" data-name="Chat Bot"><path class="cls-1" d="M50.54,91.31c-6.66-.1-14.4-.31-22.56-5a24.82,24.82,0,0,1-8-6.76c-.94-1.28-3.5-5-4.71-12.45-1.63-10,.58-18.17,2.77-26,3.68-13.07,9-20.86,10.1-22.51a43.13,43.13,0,0,1,9-9.91c3.32-2.53,7.9-6,14.25-6,5.89,0,10.17,3,12.87,5,1.34,1,4.71,3.49,9.43,10.3a73.44,73.44,0,0,1,10.7,21.7c2.13,7,5.36,17.79,2.29,29.84-1.78,7-4.72,10.6-5.53,11.55s-3.52,4-9.83,6.76C63.18,91.42,56.09,91.39,50.54,91.31Z"/><path class="cls-2" d="M49.06,3.34a54.75,54.75,0,0,0-11.4,12.72C30.48,27.13,29,38,27.92,45.68a87.92,87.92,0,0,0,.43,27.5,81.43,81.43,0,0,0,4.27,14.9l.66.42a93.37,93.37,0,0,1-3.77-15.42,96,96,0,0,1-.28-27.55c1.11-8.22,2.5-18.52,9.15-29.19a54.49,54.49,0,0,1,11.37-13Z"/><path class="cls-2" d="M81.3,32.38a64.11,64.11,0,0,0-12.66-3.71c-5.71-1.05-10-1-17.18-1a116.45,116.45,0,0,0-16.38,1,104.32,104.32,0,0,0-13.51,2.81L21,32.9C24.5,32,29.12,31,34.61,30.23a115.78,115.78,0,0,1,16.9-1.45,88,88,0,0,1,17.34,1.3A82.68,82.68,0,0,1,82,33.58C81.76,33.18,81.53,32.78,81.3,32.38Z"/><path class="cls-2" d="M86.75,50.39a59.65,59.65,0,0,0-18.11-6.47c-4.81-.85-8.94-1-17.18-1-3.78,0-7.45.07-11.74.47-2,.19-3.72.42-4.64.55A75.35,75.35,0,0,0,16.3,49.62c-.11.55-.23,1.1-.35,1.66a85.52,85.52,0,0,1,18.66-5.79A89.94,89.94,0,0,1,51.51,44a74.86,74.86,0,0,1,17.34,1.29A64.88,64.88,0,0,1,87,52.11Z"/><path class="cls-2" d="M86.89,66.7a59.35,59.35,0,0,0-18.2-6.54c-4.81-.86-8.93-1-17.18-1-3.78,0-15.71.93-16.38,1a83.27,83.27,0,0,0-19.58,5.91c0,.24.1.49.14.77s.06.56.07.81a80.1,80.1,0,0,1,18.9-6,90.12,90.12,0,0,1,16.9-1.46c6.1-.05,11,0,17.34,1.3a64,64,0,0,1,17.65,6.59c0-.24.1-.48.16-.72S86.83,66.94,86.89,66.7Z"/><path class="cls-2" d="M83.14,79a65.9,65.9,0,0,0-14.22-4.26c-5.73-1-10-1-17.18-1a95.59,95.59,0,0,0-16.38,1A77.46,77.46,0,0,0,20,79a3.15,3.15,0,0,0,.34.7,2.93,2.93,0,0,0,.72.78,52.87,52.87,0,0,1,5.4-2.15,59.77,59.77,0,0,1,8.39-2A90.84,90.84,0,0,1,51.8,74.87c6-.05,10.91-.06,17.33,1.3a63.49,63.49,0,0,1,13,4.26l.51-.71Z"/><path class="cls-2" d="M69.87,13.66c-.51-.1-1.25-.24-2.15-.38-3.69-.6-7-.83-16-.75-10.29.08-13.46.47-16.38,1-1.41.26-2.58.53-3.39.73-.22.29-.45.59-.7.9s-.47.59-.71.86c1-.27,2.53-.63,4.33-1A82.93,82.93,0,0,1,51.8,13.59a112.56,112.56,0,0,1,16,1c1.35.18,2.47.37,3.28.51l-.57-.72Z"/><path class="cls-2" d="M50.06,3.23a106.88,106.88,0,0,0-4.51,15.31c-1.65,7.64-2,14.25-2.59,27.14-.43,9-.77,16.82-.32,27.4.28,6.6.78,12.2,1.24,16.43l.73.06c-.34-4.34-.71-10-.93-16.55-.44-12.76-.13-22.59,0-27,.46-11.36.73-18.08,2.44-27.24A133.26,133.26,0,0,1,50.06,3.23Z"/><path class="cls-2" d="M52.28,3.23A106.69,106.69,0,0,1,56.8,18.54c1.64,7.64,2,14.25,2.58,27.14.43,9,.77,16.82.32,27.4-.28,6.6-.78,12.2-1.24,16.43l-.73.06c.34-4.34.71-10,.93-16.55.44-12.76.13-22.59,0-27C58.15,34.7,57.88,28,56.17,18.82A133.26,133.26,0,0,0,52.28,3.23Z"/><path class="cls-2" d="M53.35,3.34a55,55,0,0,1,11.4,12.72c7.18,11.07,8.68,22,9.74,29.62a87.92,87.92,0,0,1-.43,27.5,80.55,80.55,0,0,1-4.28,14.9l-.65.42A94.39,94.39,0,0,0,72.9,73.08a95.61,95.61,0,0,0,.27-27.55C72.07,37.31,70.68,27,64,16.34a54.71,54.71,0,0,0-11.36-13Z"/><path class="cls-3" d="M16.19,42.68a45.15,45.15,0,0,0,.07,9.65c.51,4.48,1.14,10,4.67,14.82,2.55,3.51,5.59,5.25,10,7.8,1.58.91,1.32.63,9.27,4.65,4.6,2.33,6.4,3.28,8,5.48a14,14,0,0,1,2.35,6.23,34,34,0,0,1-20.34-3C26.81,86.63,20.43,83.48,16.57,76c-3.37-6.52-3.09-13-2.84-19.06A56.87,56.87,0,0,1,16.19,42.68Z"/><path class="cls-3" d="M85.77,41.86a56.82,56.82,0,0,1-.51,10.47c-.8,5.58-1.48,10.43-4.67,14.82C78,70.66,75,72.4,70.55,75c-1.57.91-1.31.63-9.27,4.65-4.6,2.33-6.4,3.28-8,5.48A14,14,0,0,0,51,91.31a34,34,0,0,0,20.34-3C74.71,86.63,81.09,83.48,85,76c3.11-6,3-12,2.83-19.06A67.64,67.64,0,0,0,85.77,41.86Z"/><path class="cls-4" d="M34.21,33.64l2.12-.07a3.91,3.91,0,0,1,3.4-4,3.87,3.87,0,0,1,3.87,4l2.17-.07c0-3.49-2.61-6.34-5.74-6.36S34.1,30.05,34.21,33.64Z"/><path class="cls-4" d="M68.05,33.64l-2.11-.07a3.92,3.92,0,0,0-3.4-4,3.87,3.87,0,0,0-3.88,4l-2.17-.07a6.12,6.12,0,0,1,5.75-6.36C65.46,27.07,68.16,30.05,68.05,33.64Z"/><ellipse id="Má_phải" data-name="Má phải" class="cls-5" cx="69.41" cy="43.55" rx="5.67" ry="6.15"/><ellipse id="Má_phải-2" data-name="Má phải" class="cls-5" cx="32.73" cy="43.55" rx="5.67" ry="6.15"/><path class="cls-4" d="M36.31,41.67,67,41.84c1.32,13-8,22.84-16.24,22.4C42.91,63.82,34.78,54,36.31,41.67Z"/><path class="cls-6" d="M39.3,47.11a19,19,0,0,0,6.47,3.94,17.85,17.85,0,0,0,10.79.38,18.31,18.31,0,0,0,7.31-4.21A6.88,6.88,0,0,0,64.18,45a6.4,6.4,0,0,0-.35-1.86L39.2,43.05a5.35,5.35,0,0,0,.1,4.06Z"/><path class="cls-5" d="M40.49,58a21.49,21.49,0,0,1,22.26-.38c-.27.46-4.07,6.64-11.17,6.68C44.65,64.38,40.8,58.53,40.49,58Z"/><path class="cls-4" d="M21.52,32.09l0,22.94a9.1,9.1,0,0,1-5.29-.32c-4.49-1.72-7.82-7.4-6.89-13A12.25,12.25,0,0,1,16.12,33,10.53,10.53,0,0,1,21.52,32.09Z"/><path class="cls-4" d="M21.52,32.09a62.32,62.32,0,0,1,6.56-12.85A50.74,50.74,0,0,1,37.64,8.37c4-3.3,6.61-4.3,8-4.74a19.5,19.5,0,0,1,5.46-.87c0-.9,0-1.8,0-2.7a21.19,21.19,0,0,0-6,.41,24.26,24.26,0,0,0-8.88,4.17A46.53,46.53,0,0,0,25,16.34a60.37,60.37,0,0,0-8,16.74Z"/><path class="cls-4" d="M80.68,32.09l0,22.94a9.1,9.1,0,0,0,5.29-.32c4.48-1.72,7.82-7.4,6.89-13A12.28,12.28,0,0,0,86.07,33,10.49,10.49,0,0,0,80.68,32.09Z"/><path class="cls-4" d="M80.68,32.09a58.86,58.86,0,0,0-6.13-12.8A49.12,49.12,0,0,0,64.92,8.1c-4.2-3.52-6.92-4.43-8.3-4.8a17.48,17.48,0,0,0-5.51-.54c0-.9,0-1.8,0-2.7a21.2,21.2,0,0,1,6,.41A24.4,24.4,0,0,1,66,4.64a46.53,46.53,0,0,1,11.21,11.7,60.37,60.37,0,0,1,8,16.74Z"/><path class="cls-4" d="M17.76,48.75a20.83,20.83,0,0,0,3.06,7.73c1.09,1.64,2.23,3.31,4.35,4.19a7.52,7.52,0,0,0,3.72.49A2.73,2.73,0,0,1,29,59.87a2.89,2.89,0,0,1,1.64-1.7L37.2,58a5.09,5.09,0,0,1,2.15,3.76,5.25,5.25,0,0,1-1.75,4.27l-7.15.1a2.09,2.09,0,0,1-1-.65A2.46,2.46,0,0,1,28.91,64a10.59,10.59,0,0,1-4.28-.34A10.15,10.15,0,0,1,22,62.48c-.63-.39-2.24-1.5-4.11-4.77a27.59,27.59,0,0,1-3.18-8.84Z"/><path id="Tay_trái" data-name="Tay trái" class="cls-4" d="M13.61,63A10.81,10.81,0,0,1,8,61.92a10.08,10.08,0,0,1-4.71-4.7C2.46,55.1,1.63,52.8.88,50.32c-.32-1-.61-2.07-.87-3.07a3,3,0,0,1,2.47-3.32A3,3,0,0,1,5.6,45.72c.29,1,.61,2.09,1,3.19.49,1.5,1,2.93,1.54,4.26a4.4,4.4,0,0,0,2.15,2,4.5,4.5,0,0,0,3.46,0c-.05,1.78-.09,3.59-.1,5.43C13.61,61.41,13.61,62.21,13.61,63Z"/><path id="Tay_trái-2" data-name="Tay trái" class="cls-4" d="M88,63a10.76,10.76,0,0,0,5.57-1.08,10.11,10.11,0,0,0,4.72-4.7c.86-2.12,1.69-4.42,2.44-6.9.31-1,.6-2.07.86-3.07A2.91,2.91,0,0,0,96,45.72c-.29,1-.61,2.09-1,3.19-.5,1.5-1,2.93-1.55,4.26a4.41,4.41,0,0,1-2.14,2,4.53,4.53,0,0,1-3.47,0c.06,1.78.09,3.59.11,5.43C88,61.41,88,62.21,88,63Z"/></g></g></svg>