<svg xmlns="http://www.w3.org/2000/svg" viewBox="0 0 111.53 90.37"><defs><style>.cls-1{fill:#ffd345;}.cls-1,.cls-3,.cls-5{stroke:#5b2510;stroke-miterlimit:10;stroke-width:0.71px;}.cls-2,.cls-4{fill:#ff8039;}.cls-2{opacity:0.48;}.cls-3,.cls-6{fill:#10a956;}.cls-5,.cls-8{fill:#fff;}.cls-6{font-size:10.93px;font-family:iCielPanton-Black, iCiel Panton;font-weight:800;}.cls-7{fill:#5b2510;}</style></defs><g id="Layer_2" data-name="Layer 2"><g id="Exam_Bot" data-name="Exam Bot"><path class="cls-1" d="M62.18,89.58c-6.91-.1-14.93-.31-23.39-5a25.49,25.49,0,0,1-8.32-6.81c-1-1.29-3.63-5.06-4.88-12.55-1.69-10.09.59-18.3,2.87-26.16,3.81-13.18,9.29-21,10.47-22.69a44.27,44.27,0,0,1,9.33-10C51.71,3.85,56.46.33,63.05.35c6.1,0,10.54,3.07,13.34,5,1.39,1,4.89,3.52,9.78,10.38a73.42,73.42,0,0,1,11.1,21.86c2.2,7.11,5.55,17.93,2.37,30.07-1.85,7.06-4.89,10.69-5.74,11.65s-3.65,4-10.19,6.8C75.29,89.7,67.94,89.66,62.18,89.58Z"/><path class="cls-2" d="M60.64.94A56.09,56.09,0,0,0,48.82,13.76c-7.44,11.15-9,22.14-10.1,29.85a86.07,86.07,0,0,0,.45,27.7,79.87,79.87,0,0,0,4.43,15l.68.41a92.58,92.58,0,0,1-3.91-15.53,93.6,93.6,0,0,1-.28-27.76c1.15-8.28,2.59-18.67,9.49-29.41A55.76,55.76,0,0,1,61.36.88Z"/><path class="cls-2" d="M94.08,30.2A68,68,0,0,0,81,26.46c-5.92-1.06-10.33-1-17.81-1a122.18,122.18,0,0,0-17,1,111,111,0,0,0-14,2.82l-.57,1.37c3.6-.86,8.4-1.87,14.09-2.68a123.91,123.91,0,0,1,17.53-1.47,93.93,93.93,0,0,1,18,1.31,87.87,87.87,0,0,1,13.62,3.53Z"/><path class="cls-2" d="M99.73,48.35A62.93,62.93,0,0,0,81,41.83c-5-.86-9.26-1-17.81-1-3.92,0-7.73.08-12.18.48-2.09.19-3.86.41-4.81.55a79.46,79.46,0,0,0-19.47,5.67c-.12.56-.25,1.11-.37,1.67a90.37,90.37,0,0,1,19.35-5.83A96,96,0,0,1,63.19,42a79.93,79.93,0,0,1,18,1.3A68.58,68.58,0,0,1,100,50.08Z"/><path class="cls-2" d="M99.88,64.78A62.91,62.91,0,0,0,81,58.19c-5-.86-9.26-1-17.81-1-3.92,0-16.3.93-17,1a87.6,87.6,0,0,0-20.3,5.95c.05.24.1.49.14.78s.06.56.07.81a85.89,85.89,0,0,1,10.9-4,88.6,88.6,0,0,1,8.7-2,96,96,0,0,1,17.53-1.46c6.33-.06,11.41,0,18,1.3a67.84,67.84,0,0,1,18.31,6.64c0-.23.1-.48.16-.72S99.81,65,99.88,64.78Z"/><path class="cls-2" d="M96,77.2a69.87,69.87,0,0,0-14.75-4.3c-5.94-1-10.39-1-17.81-1-6.54,0-11,.06-17,1A81.74,81.74,0,0,0,30.55,77.2a3.49,3.49,0,0,0,.35.7,3.4,3.4,0,0,0,.75.79,53.46,53.46,0,0,1,5.6-2.17,64.2,64.2,0,0,1,8.7-2A97.08,97.08,0,0,1,63.48,73c6.24-.05,11.32-.06,18,1.31a66.57,66.57,0,0,1,13.47,4.3l.53-.72Z"/><path class="cls-2" d="M82.22,11.34c-.52-.1-1.29-.24-2.22-.39-3.83-.6-7.3-.83-16.57-.76-10.68.09-14,.48-17,1-1.47.27-2.68.54-3.51.74-.23.3-.47.6-.73.91s-.49.59-.74.87c1.08-.28,2.63-.64,4.49-1a87.73,87.73,0,0,1,17.53-1.47A121,121,0,0,1,80,12.3c1.4.19,2.57.38,3.4.51l-.59-.72Z"/><path class="cls-2" d="M61.68.83A106.41,106.41,0,0,0,57,16.25c-1.7,7.7-2,14.36-2.68,27.36A273.22,273.22,0,0,0,54,71.21c.29,6.65.81,12.3,1.29,16.56l.75,0c-.35-4.36-.73-10-1-16.67-.46-12.86-.13-22.76,0-27.17.47-11.44.75-18.22,2.53-27.44A132.19,132.19,0,0,1,61.68.83Z"/><path class="cls-2" d="M64,.83a106.41,106.41,0,0,1,4.68,15.42c1.71,7.7,2,14.36,2.68,27.36a273.22,273.22,0,0,1,.33,27.6c-.29,6.65-.81,12.3-1.29,16.56l-.75,0c.35-4.36.73-10,1-16.67.45-12.86.13-22.76-.06-27.17C70.08,32.54,69.8,25.76,68,16.54A130.26,130.26,0,0,0,64,.83Z"/><path class="cls-2" d="M65.1.94A56.09,56.09,0,0,1,76.92,13.76c7.44,11.15,9,22.14,10.1,29.85a85.77,85.77,0,0,1-.45,27.7,79.87,79.87,0,0,1-4.43,15l-.68.41a92.58,92.58,0,0,0,3.91-15.53,93.6,93.6,0,0,0,.28-27.76C84.5,35.17,83.06,24.78,76.16,14A55.76,55.76,0,0,0,64.38.88Z"/><path class="cls-3" d="M26.56,40.58a44.49,44.49,0,0,0,.07,9.72c.53,4.51,1.19,10.05,4.84,14.93,2.65,3.54,5.8,5.3,10.41,7.87,1.64.91,1.36.63,9.62,4.68,4.76,2.35,6.63,3.31,8.25,5.52a13.93,13.93,0,0,1,2.43,6.28,36.27,36.27,0,0,1-21.09-3C37.57,84.87,31,81.69,27,74.15,23.46,67.58,23.75,61,24,55A55.69,55.69,0,0,1,26.56,40.58Z"/><path class="cls-3" d="M98.13,40.4a43,43,0,0,1,.06,9.9c-.6,5.41-1.4,10.33-4.85,14.93-2.65,3.54-5.79,5.3-10.4,7.87-1.64.91-1.36.63-9.62,4.68-4.77,2.35-6.63,3.31-8.25,5.52a14.08,14.08,0,0,0-2.44,6.28,36.3,36.3,0,0,0,21.1-3c3.51-1.69,10.14-4.87,14.13-12.41,3.77-7.09,3.3-14.28,3-19.2a76.57,76.57,0,0,0-2-12C98.55,41.9,98.3,41,98.13,40.4Z"/><ellipse id="Má_phải" data-name="Má phải" class="cls-4" cx="81.75" cy="41.45" rx="5.88" ry="6.2"/><ellipse id="Má_phải-2" data-name="Má phải" class="cls-4" cx="43.71" cy="41.45" rx="5.88" ry="6.2"/><g id="Exam"><rect class="cls-5" x="0.35" y="28.44" width="38.22" height="54"/><text class="cls-6" transform="translate(4.68 42.71)">EXAM</text></g><g id="Layer_6" data-name="Layer 6"><g id="Tay"><path class="cls-7" d="M17.9,27.19a4.92,4.92,0,0,0,2.23,5A5.26,5.26,0,0,0,25.34,32a5.32,5.32,0,0,0,2.42-4.8,6.22,6.22,0,0,0-4.65-2.61A6.29,6.29,0,0,0,17.9,27.19Z"/><path id="Tay_phải" data-name="Tay phải" class="cls-7" d="M98.39,49.88a28.28,28.28,0,0,0,.28-3.31,27.39,27.39,0,0,0-.14-3.63c2.87,1.52,8.7,5.18,11.37,12.11,1.28,3.31,3,10.46-.22,13.16-1.22,1-3.41,1.63-4.9.72a4.29,4.29,0,0,1-1.68-3.66c0-1.28.57-1.71,1-3.17h0a11.65,11.65,0,0,0,.05-4.68C103.72,55.51,101.92,52.36,98.39,49.88Z"/></g><g id="Biểu_cảm_2" data-name="Biểu cảm 2"><ellipse class="cls-7" cx="52.96" cy="29.82" rx="4.84" ry="5.85"/><path class="cls-7" d="M68.82,27.17h9.25l.06,5a5.59,5.59,0,0,1-4.32,2.87,5.3,5.3,0,0,1-4.9-2.59Z"/><path id="Miệng" class="cls-7" d="M69.38,45.45a3,3,0,0,1,.39,2.33c-.17.48-.61,1.13-1.17,1.15-.25,0-.54-.11-1.11-.77-1-1.2-.89-1.77-1.57-2.5a3.52,3.52,0,0,0-2.68-1.09,3.78,3.78,0,0,0-2.48,1.27c-.66.74-.52,1.19-1.38,2.07-.4.42-1,1.05-1.55.89s-.71-1.13-.74-1.34a3.17,3.17,0,0,1,.35-1.88,6.91,6.91,0,0,1,5.79-3.77,6.31,6.31,0,0,1,3.13.73A6.6,6.6,0,0,1,69.38,45.45Z"/><ellipse class="cls-8" cx="50.9" cy="27.85" rx="1.29" ry="1.56"/><ellipse class="cls-8" cx="71.31" cy="29.82" rx="1.29" ry="1.56"/></g></g></g></g></svg>