<svg xmlns="http://www.w3.org/2000/svg" viewBox="0 0 139.86 128.01"><defs><style>.cls-1{fill:#5b2510;}.cls-2{fill:#ffd345;}.cls-2,.cls-5,.cls-8{stroke:#5b2510;stroke-miterlimit:10;stroke-width:0.71px;}.cls-3{opacity:0.5;}.cls-4{fill:#ff8039;}.cls-5,.cls-9{fill:#10a956;}.cls-6,.cls-8{fill:#fff;}.cls-7{fill:#fef8fc;}.cls-9{font-size:11.89px;font-family:iCielPanton-Black, iCiel Panton;font-weight:800;}</style></defs><g id="Layer_2" data-name="Layer 2"><g id="Layer_10" data-name="Layer 10"><path id="Chân_trái" data-name="Chân trái" class="cls-1" d="M64.23,105.39l-5,10.71L54.77,116c-2.28,1.06-3.87,2.66-3.75,4,.09,1,1.31,1.59,3.76,2.68a14.89,14.89,0,0,0,5,1.31c2.2.16,3-.29,3.22-.43A5,5,0,0,0,64.93,121a100.83,100.83,0,0,1,5.42-10.78Z"/><path id="Tay_trái" data-name="Tay trái" class="cls-1" d="M46.37,78.84a16.87,16.87,0,0,1-9.65,11.75,11.12,11.12,0,0,1-3.66.19,11.4,11.4,0,0,1-5.53-2.26,3.44,3.44,0,0,1-1.68-4,2.93,2.93,0,0,1,2.45-1.64c1.28-.07,1.81.86,3.63,1.61a9,9,0,0,0,3.24.68,14.3,14.3,0,0,0,3-3.5,14.59,14.59,0,0,0,2-6.79,3.19,3.19,0,0,1,2.52.17c.91.55,1,1.47,2.1,2.64A6.8,6.8,0,0,0,46.37,78.84Z"/><path id="Thân" class="cls-2" d="M50.26,99.29C42,90.08,42.64,76.58,42.92,73a140.63,140.63,0,0,1,5.51-29.29c2.58-8.5,4.84-12.83,7.46-16.46a30,30,0,0,1,11-10,25,25,0,0,1,12-2.7A27.07,27.07,0,0,1,89.9,17.6c10.09,5.2,15,15.1,17.87,20.88a68.62,68.62,0,0,1,6.75,25.76c.53,8.11,1,16-2.89,24-6,12.15-18.17,15.9-24.17,17.74C84.36,106.91,62.35,112.75,50.26,99.29Z"/><g class="cls-3"><path class="cls-4" d="M76.46,15.75A197.89,197.89,0,0,0,74.25,110l.94-.93a203.12,203.12,0,0,1-4.57-48.41,200.94,200.94,0,0,1,6.27-44.94Z"/><path class="cls-4" d="M79.27,15.72C82,29.37,84.42,44.56,86.12,61.11a481.57,481.57,0,0,1,2.51,48.44l-1.17.16c0-14.72-.71-30.88-2.32-48.23-1.55-16.55-3.75-31.86-6.26-45.78Z"/><path class="cls-4" d="M87.63,17.82a120.86,120.86,0,0,1,14.64,41.52,123.3,123.3,0,0,1-1.94,48.24l-.63.09a131.15,131.15,0,0,0,1.45-48.24A129,129,0,0,0,87,17.56Z"/><path class="cls-4" d="M71.76,16.57a89,89,0,0,0-17.48,44,93.78,93.78,0,0,0,7.59,48.71l1.09.4A93,93,0,0,1,55,60.4,88.15,88.15,0,0,1,72.77,16.31Z"/><path class="cls-4" d="M99.68,27.25a62.91,62.91,0,0,0-22.52-4.16,61.92,61.92,0,0,0-19,3.07l-.63.81a63,63,0,0,1,19.65-3.1,64.13,64.13,0,0,1,23.44,4.56Z"/><path class="cls-4" d="M109.74,46.1a103.68,103.68,0,0,0-41.43-5.61A101,101,0,0,0,49.6,43.63l-.28.95a101.52,101.52,0,0,1,18.61-3.21A104.13,104.13,0,0,1,110.06,47Z"/><path class="cls-4" d="M106.71,59.06a93.23,93.23,0,0,0-42.45-3.53,92.08,92.08,0,0,0-18.65,4.94l-.16,1a90.16,90.16,0,0,1,18.42-5,92.07,92.07,0,0,1,42.37,3.3Z"/><path class="cls-4" d="M104.31,75.73A94.65,94.65,0,0,0,42.55,80l-.49,1.36a91.76,91.76,0,0,1,19.37-6.31,93.06,93.06,0,0,1,42.18,1.25Z"/></g><path id="Lá_Trái" data-name="Lá Trái" class="cls-5" d="M44.47,57.37c-.38,1.8-1.47,7.91,1.61,12.13C47.93,72,51.42,74,53,75c3.78,2.27,4.55,1.79,8.6,3.89A38.68,38.68,0,0,1,71.78,86.8a31.17,31.17,0,0,1,4.93,9.06,39.84,39.84,0,0,1,2,8,42,42,0,0,1,.44,5.5,32,32,0,0,1-21.75-2.88A30.81,30.81,0,0,1,45.62,95.89a35.42,35.42,0,0,1-5.36-17.22A41.37,41.37,0,0,1,44.47,57.37Z"/><path id="Lá_phải" data-name="Lá phải" class="cls-5" d="M111.48,46.88a21.53,21.53,0,0,1-.62,7.53c-1.6,5.85-5.57,9.18-10.71,14A72.72,72.72,0,0,1,91,75.54c-1.89,1.29-4.14,2.72-7.47,5.28a25.9,25.9,0,0,0-5.36,5,24.57,24.57,0,0,0-2.75,4.59,23.17,23.17,0,0,0-2.53,8.3,11.39,11.39,0,0,0,.28,5.3,9.48,9.48,0,0,0,5.45,5.29,35.38,35.38,0,0,0,4.17.27A43.64,43.64,0,0,0,93,108.09c3.88-1,11-2.78,17.31-9.06a34.33,34.33,0,0,0,7.43-11.42h0a57.46,57.46,0,0,0,2.62-19.17,29.62,29.62,0,0,0-2.66-12.89A27.31,27.31,0,0,0,111.48,46.88Z"/><ellipse id="Mắt_2" data-name="Mắt 2" class="cls-1" cx="79.32" cy="40.24" rx="4.12" ry="7.32" transform="translate(-3.66 8.23) rotate(-5.81)"/><ellipse id="Má_trái" data-name="Má trái" class="cls-4" cx="55.19" cy="61.39" rx="4.66" ry="5.08" transform="translate(-3.97 3.82) rotate(-3.83)"/><ellipse id="Má_phải" data-name="Má phải" class="cls-4" cx="87.6" cy="59.58" rx="5.3" ry="5.77" transform="translate(-3.78 5.98) rotate(-3.83)"/><path id="Chân_phải" data-name="Chân phải" class="cls-1" d="M95.81,104.55a4.65,4.65,0,0,0-6.36-.92A5.34,5.34,0,0,0,88,109.8L94,122.34a7,7,0,0,0,2.46,4.6,6.54,6.54,0,0,0,3.92,1,9.59,9.59,0,0,0,3.67-.48c1.49-.54,3-1.09,3.33-2.52s-.44-2.89-1.74-4.07l-4-1.74a73.46,73.46,0,0,0-2.88-8.42C97.78,108.47,96.79,106.39,95.81,104.55Z"/><ellipse class="cls-6" cx="80.37" cy="38.08" rx="1.47" ry="2.63" transform="translate(-5.54 15.07) rotate(-10.36)"/><path class="cls-1" d="M60.7,54.28a61.14,61.14,0,0,0,9-1.09,61.62,61.62,0,0,0,8.45-2.32,18.17,18.17,0,0,1,.92,7.06,11.24,11.24,0,0,1-1.48,5.62c-.33.53-2.75,4.28-6.83,4.36-3.25.06-5.47-2.25-6.51-3.33C60.6,60.74,60.64,55.66,60.7,54.28Z"/><path class="cls-7" d="M62.21,56.39a9.38,9.38,0,0,0,3.49,2.09,10.26,10.26,0,0,0,7-.44A11.82,11.82,0,0,0,77,55.13a3.73,3.73,0,0,0,.41-3.77,47.35,47.35,0,0,1-9.7,2.25,47.49,47.49,0,0,1-5.94.37,5.49,5.49,0,0,0,0,1A4.84,4.84,0,0,0,62.21,56.39Z"/><path class="cls-4" d="M64.28,64.58A26.77,26.77,0,0,1,79.1,57.93a10.34,10.34,0,0,1-2.33,6.77,8.37,8.37,0,0,1-5.47,3.21A7.58,7.58,0,0,1,68,67.46,8.06,8.06,0,0,1,64.28,64.58Z"/><path class="cls-8" d="M41.41,14.52c.79,5.21-1.85,9.78-3.36,12L43.31,38l-8.2-8.76a22.3,22.3,0,0,1-13,6C13.55,36,2.38,31.17.6,22.32c-1.94-9.6,8-20.11,18-21.73C28.12-.94,40,5.11,41.41,14.52Z"/><text class="cls-9" transform="matrix(0.91, -0.15, 0.15, 0.99, 5.13, 24.92)">GOOD!</text><path class="cls-1" d="M57.72,54.18c0,.18,1,.32,1.63.41a24.66,24.66,0,0,0,7.53-.17c4.74-.72,7.11-1.08,9.34-2,2.64-1.07,5-2.56,4.93-2.82s-3.6,1.48-8.73,2.74C64.5,54.29,57.72,53.72,57.72,54.18Z"/><path class="cls-1" d="M56.9,38.88l5.18,4.29-4,5.63c-.14.3-.49,1.11-.25,1.3s1.63-.8,1.74-.9l5.24-6.41-5-6.13a1.9,1.9,0,0,0-3,2.22Z"/><path class="cls-1" d="M111.45,60.82c-.11.57-.42,2.54.66,3.45s2.6.41,4.34-.25c2.36-.9,6.74-3,12.82-8,4.11-3.27,7-6.14,8.84-9.46a13.42,13.42,0,0,0,1.31-3.33,10.62,10.62,0,0,0-.18-6.55,8.37,8.37,0,0,0-4.75-5c-1.64-.56-4.28-.73-5.9.67s-1,3.66-1.73,3.74-.85-2-2.69-3.81a7.55,7.55,0,0,0-4.47-2.17c-1.57-.15-4.32.16-4.7,1.42-.55,1.82,4.47,3.19,5.13,7.51.26,1.68-.37,2.39.3,3.93.94,2.17,2.81,2,3.48,3.48,1.34,3-4,8.15-5.41,9.48A28.12,28.12,0,0,1,111.45,60.82Z"/></g></g></svg>