<svg xmlns="http://www.w3.org/2000/svg" viewBox="0 0 119.96 127.83"><defs><style>.cls-1{fill:#5b2510;}.cls-2{fill:#ffd345;}.cls-2,.cls-5,.cls-8{stroke:#5b2510;stroke-miterlimit:10;stroke-width:0.71px;}.cls-3{opacity:0.5;}.cls-4{fill:#ff8039;}.cls-5,.cls-9{fill:#10a956;}.cls-6,.cls-8{fill:#fff;}.cls-7{fill:#fef8fc;}.cls-9{font-size:10.93px;font-family:iCielPanton-Black, iCiel Panton;font-weight:800;}.cls-10{letter-spacing:-0.01em;}</style></defs><g id="Layer_2" data-name="Layer 2"><g id="Hello"><path id="Chân_trái" data-name="Chân trái" class="cls-1" d="M52.49,104.46l.36,10.84L48.79,117c-1.57,1.79-2.27,3.75-1.59,4.77.55.83,1.89.79,4.56.72a15.77,15.77,0,0,0,5.09-.92c2-.74,2.55-1.43,2.69-1.64a4.29,4.29,0,0,0,.54-2.88,83.47,83.47,0,0,1,0-11.09Z"/><path id="Tay_trái" data-name="Tay trái" class="cls-1" d="M32.51,67.06A18.09,18.09,0,0,1,26,62.91c-1.5-1.51-2.84-2.85-3.45-5-.36-1.27-.33-3.52-.28-8,0-1.2.05-2.36.1-3.49a3.2,3.2,0,0,1,6.35.23c0,1.17-.06,2.39,0,3.66,0,1.73.09,3.39.21,5a6.69,6.69,0,0,0,1.7,2.34,7.13,7.13,0,0,0,4.77,1.66,13.72,13.72,0,0,0-2.62,5.65A12.13,12.13,0,0,0,32.51,67.06Z"/><path id="Thân" class="cls-2" d="M37.93,94.65c-6.8-9.6-4.13-21.74-3.31-25a120.63,120.63,0,0,1,9.82-25.72c3.82-7.32,6.7-10.91,9.84-13.8a29.51,29.51,0,0,1,12.3-7.41,27,27,0,0,1,12.25-.63,28.46,28.46,0,0,1,10.49,4.47c9.19,6.25,12.54,16,14.53,21.65a58.77,58.77,0,0,1,2.82,24.38C106,80,105.3,87.29,100.23,93.91,92.48,104,79.9,105.57,73.7,106.33,70.49,106.73,47.87,108.69,37.93,94.65Z"/><g class="cls-3"><path class="cls-4" d="M76.32,22.86A167.92,167.92,0,0,0,60,108l1.07-.7A171.47,171.47,0,0,1,76.74,22.9Z"/><path class="cls-4" d="M79.09,23.26a406.4,406.4,0,0,1,0,42.2,406.84,406.84,0,0,1-4.75,44.31l-1.19,0c2.15-13.36,3.92-28.11,4.92-44.09,1-15.25,1.06-29.46.66-42.47Z"/><path class="cls-4" d="M87,26.43A104.35,104.35,0,0,1,95.3,66.3a104.54,104.54,0,0,1-9.13,43.45h-.64a111.23,111.23,0,0,0,8.65-43.53A111,111,0,0,0,86.45,26.1Z"/><path class="cls-4" d="M71.54,22.89a79.06,79.06,0,0,0-23.63,82.58l1,.53A78.27,78.27,0,0,1,72.58,22.82Z"/><path class="cls-4" d="M97.53,36.81a67.08,67.08,0,0,0-40.91-7.29l-.74.64A68.34,68.34,0,0,1,98.24,38Z"/><path class="cls-4" d="M104.66,55.43a111.58,111.58,0,0,0-40.1-11.37,109.64,109.64,0,0,0-19,0l-.42.81a110.2,110.2,0,0,1,18.87-.08,112,112,0,0,1,40.78,11.48Z"/><path class="cls-4" d="M99.72,66.72a100.7,100.7,0,0,0-41.41-9.63,97.54,97.54,0,0,0-19.17,1.66l-.3.88a96,96,0,0,1,18.95-1.79,99.14,99.14,0,0,1,41.37,9.41Z"/><path class="cls-4" d="M94.86,81.48a104.55,104.55,0,0,0-41.79-7.89A103.11,103.11,0,0,0,33.2,76l-.69,1.16a98.75,98.75,0,0,1,20.08-2.79,101,101,0,0,1,41.49,7.52Z"/></g><path id="Lá_Trái" data-name="Lá Trái" class="cls-5" d="M38.48,55.76c-.65,1.57-2.63,7-.22,11.24,1.45,2.58,4.59,4.92,6,6,3.4,2.63,4.24,2.31,7.92,4.83a37.55,37.55,0,0,1,8.87,8.74,27.27,27.27,0,0,1,3.52,9,34.36,34.36,0,0,1,.77,7.57,36.08,36.08,0,0,1-.39,5.06,34.42,34.42,0,0,1-21.06-5.91,29.7,29.7,0,0,1-10-11.4,30.34,30.34,0,0,1-2.73-16.43A35.84,35.84,0,0,1,38.48,55.76Z"/><path id="Lá_phải" data-name="Lá phải" class="cls-5" d="M106.26,56.4a18.15,18.15,0,0,1-1.74,6.73c-2.45,5.07-6.87,7.49-12.68,11.1a73.65,73.65,0,0,1-10.07,5.06c-2,.89-4.49,1.85-8.17,3.66a25.79,25.79,0,0,0-6,3.75,22.39,22.39,0,0,0-3.4,3.74,20.52,20.52,0,0,0-3.75,7.15,9.58,9.58,0,0,0-.51,4.85c.72,3.35,3.74,5.15,4.6,5.62a40.28,40.28,0,0,0,4.07.88,48,48,0,0,0,10.3.17c4-.3,11.33-.84,18.47-5.6a31.91,31.91,0,0,0,9-9.23h0a49.14,49.14,0,0,0,5.46-17,25.28,25.28,0,0,0-.71-12.09A24.86,24.86,0,0,0,106.26,56.4Z"/><ellipse id="Mắt" class="cls-1" cx="57.18" cy="44.84" rx="6.34" ry="3.88" transform="translate(9.56 99.73) rotate(-87.16)"/><ellipse id="Mắt_2" data-name="Mắt 2" class="cls-1" cx="74.29" cy="45.69" rx="6.72" ry="4.11" transform="translate(24.98 117.62) rotate(-87.16)"/><circle id="Má_trái" data-name="Má trái" class="cls-4" cx="48.47" cy="61.03" r="4.66"/><circle id="Má_phải" data-name="Má phải" class="cls-4" cx="80.76" cy="64.3" r="5.3"/><path id="Tay_phải" data-name="Tay phải" class="cls-1" d="M106.58,76.76a15,15,0,0,0,.77-3c.42-2.83-.21-4,.25-4.34,1.17-.8,8.71,4.43,11.32,12.87,1.54,5,1.82,12.63-2.38,16.23-1.32,1.13-4,2.68-5.75,1.66s-1.53-3.71-1.53-3.83c.08-1.77,1-2.52,1.86-4.24a13.57,13.57,0,0,0,1-7.41C111.35,80.26,107.77,77.57,106.58,76.76Z"/><path id="Chân_phải" data-name="Chân phải" class="cls-1" d="M76,106.76a4.46,4.46,0,0,0-8.72,1.3l.48,12a5.71,5.71,0,0,0,.42,4.51,6.46,6.46,0,0,0,3,2.24,9.57,9.57,0,0,0,3.37,1c1.49.11,3,.23,3.83-.77a3.64,3.64,0,0,0,0-3.83c-.94-.93-1.88-1.87-2.81-2.81a56.57,56.57,0,0,0,.63-7.65A55.28,55.28,0,0,0,76,106.76Z"/><ellipse class="cls-6" cx="56.55" cy="41.77" rx="2.2" ry="1.33" transform="translate(4.23 88.73) rotate(-78.36)"/><ellipse class="cls-6" cx="73.63" cy="42.67" rx="2.42" ry="1.47" transform="translate(16.99 106.18) rotate(-78.36)"/><path class="cls-1" d="M55,55.42a52.88,52.88,0,0,1,18.29,1c.34,7.95-5.77,13.35-10.35,12.87S53.7,62.71,55,55.42Z"/><path class="cls-7" d="M56.15,57.56a11.4,11.4,0,0,0,3.74,2.54,11.09,11.09,0,0,0,6.43.55,12,12,0,0,0,4.6-2,3.54,3.54,0,0,0,.73-1.35,3.67,3.67,0,0,0,.11-1.2A50.14,50.14,0,0,0,62.12,55a52,52,0,0,0-6.07.27,4.27,4.27,0,0,0-.1.88A4.2,4.2,0,0,0,56.15,57.56Z"/><path class="cls-4" d="M57,65.3a19.37,19.37,0,0,1,15.16-2.72c-1.21,4.28-5,7-8.73,6.8C59.46,69.13,57.22,65.69,57,65.3Z"/><path class="cls-8" d="M41.86,16.44c0,4.84-3.29,8.59-5.11,10.34L40.23,38l-6.8-9.19a23.26,23.26,0,0,1-13.78,3.49C11.13,31.65.81,25.62.37,17.33c-.48-9,10.89-17,21.06-17C31,.41,41.84,7.69,41.86,16.44Z"/><text class="cls-9" transform="translate(4.38 20.38)">HEL<tspan class="cls-10" x="19.89" y="0">L</tspan><tspan x="25.69" y="0">O</tspan></text></g></g></svg>