<svg xmlns="http://www.w3.org/2000/svg" viewBox="0 0 130 95"><defs><style>.cls-1{fill:#5b2510;}.cls-2{fill:#ffd345;}.cls-2,.cls-5{stroke:#5b2510;stroke-miterlimit:10;stroke-width:0.71px;}.cls-3{opacity:0.5;}.cls-4{fill:#ff8039;}.cls-5,.cls-6{fill:#10a956;}.cls-6{font-size:42.44px;font-family:iCielPanton-Black, iCiel Panton;font-weight:800;}</style></defs><g id="Layer_2" data-name="Layer 2"><g id="Layer_2-2" data-name="Layer 2"><path id="Chân_trái" data-name="Chân trái" class="cls-1" d="M44.09,74.44,41.6,82l-7.27-.92a3.12,3.12,0,1,0-1.06,6l9.9,1.53a3.4,3.4,0,0,0,4.13-2.94,78.93,78.93,0,0,1,3.33-9.55Z"/><path id="Tay_trái" data-name="Tay trái" class="cls-1" d="M28.61,46.4A9.64,9.64,0,0,1,19.55,38c-.19-2.29-.29-4.73-.26-7.32,0-1.09.05-2.16.1-3.19a2.92,2.92,0,0,1,5.79.21c0,1.08-.05,2.19,0,3.34,0,1.58.09,3.1.19,4.53a6.14,6.14,0,0,0,1.79,2.24A6,6,0,0,0,29.74,39q-.52,2.6-.9,5.43C28.76,45.08,28.68,45.74,28.61,46.4Z"/><path id="Thân" class="cls-2" d="M34.61,67c-6.2-8.76-3.77-19.84-3-22.8a110.22,110.22,0,0,1,9-23.48c3.49-6.68,6.11-10,9-12.59A27,27,0,0,1,60.76,1.32,24.76,24.76,0,0,1,71.93.74,26,26,0,0,1,81.5,4.83C89.89,10.53,93,19.39,94.76,24.58a53.29,53.29,0,0,1,2.57,22.25c-.62,6.78-1.24,13.4-5.87,19.44C84.39,75.5,72.91,76.92,67.25,77.61,64.32,78,43.68,79.76,34.61,67Z"/><g class="cls-3"><path class="cls-4" d="M69.64,1.44A152.94,152.94,0,0,0,54.78,79.13l1-.64A156.53,156.53,0,0,1,70,1.48Z"/><path class="cls-4" d="M72.17,1.8a371.73,371.73,0,0,1,0,38.52,369.92,369.92,0,0,1-4.34,40.42l-1.08,0c2-12.19,3.58-25.66,4.49-40.23.87-13.92,1-26.89.6-38.76Z"/><path class="cls-4" d="M79.43,4.7A95.4,95.4,0,0,1,87,41.08a95.43,95.43,0,0,1-8.33,39.65h-.58A101.49,101.49,0,0,0,85.94,41a101.49,101.49,0,0,0-7-36.61Z"/><path class="cls-4" d="M65.28,1.46A72.17,72.17,0,0,0,43.72,76.83l.93.48A71.41,71.41,0,0,1,66.23,1.4Z"/><path class="cls-4" d="M89,14.17A61.18,61.18,0,0,0,51.66,7.51L51,8.1a62.28,62.28,0,0,1,38.65,7.16Z"/><path class="cls-4" d="M95.5,31.16A101.66,101.66,0,0,0,58.91,20.78a99.49,99.49,0,0,0-17.3,0l-.38.74a100.14,100.14,0,0,1,17.22-.08A102.37,102.37,0,0,1,95.66,31.94Z"/><path class="cls-4" d="M91,41.46a92,92,0,0,0-37.8-8.79,89.07,89.07,0,0,0-17.48,1.52l-.28.8a87.25,87.25,0,0,1,17.3-1.63,90.59,90.59,0,0,1,37.74,8.58Z"/><path class="cls-4" d="M86.56,54.93a95.24,95.24,0,0,0-38.13-7.2,93.82,93.82,0,0,0-18.14,2.19L29.66,51A90.36,90.36,0,0,1,48,48.43,92,92,0,0,1,85.85,55.3Z"/></g><path id="Lá_Trái" data-name="Lá Trái" class="cls-5" d="M32.8,32.59a15.75,15.75,0,0,0,2.11,9.13c1.45,2.39,3.28,3.78,5.49,5.49,3.1,2.4,3.86,2.11,7.23,4.41s6.22,4.25,8.09,8A18,18,0,0,1,57.43,68,16.21,16.21,0,0,1,56,75.55a14.48,14.48,0,0,1-2.27,3.39,36.74,36.74,0,0,1-17.34-7.48c-2.62-2.08-6.73-5.36-9.07-11.25a25.87,25.87,0,0,1-.81-16.06A27.4,27.4,0,0,1,32.8,32.59Z"/><path id="Lá_phải" data-name="Lá phải" class="cls-5" d="M99.19,32.91a48.41,48.41,0,0,1-3.81,5.28c-4,4.83-8,7.54-11.58,10.13a45.9,45.9,0,0,1-12.17,6.8C66.88,56.83,64.8,56.55,60.06,59s-6.27,4.66-6.73,5.36a13.36,13.36,0,0,0-2,8.17,12.9,12.9,0,0,0,2.41,6.37c2.28.39,5.3.8,8.87,1a64.39,64.39,0,0,0,9.4.16c3.64-.28,10.34-.78,16.85-5.11a29,29,0,0,0,8.26-8.43h0a44.7,44.7,0,0,0,5-15.5A38.14,38.14,0,0,0,99.19,32.91Z"/><ellipse id="Mắt" class="cls-1" cx="51.53" cy="30.21" rx="3.51" ry="2.15" transform="translate(18.8 80.17) rotate(-87.16)"/><ellipse id="Mắt_2" data-name="Mắt 2" class="cls-1" cx="67.36" cy="31.49" rx="3.72" ry="2.28" transform="translate(32.57 97.2) rotate(-87.16)"/><circle id="Má_trái" data-name="Má trái" class="cls-4" cx="44.23" cy="36.27" r="4.26"/><circle id="Má_phải" data-name="Má phải" class="cls-4" cx="73.7" cy="39.25" r="4.84"/><path id="Miệng" class="cls-1" d="M52.24,38.11A1.64,1.64,0,0,1,52.33,37a1.17,1.17,0,0,1,.9-.63c.14,0,.49,0,1.15.86s.6,1.28,1.11,1.91a3.4,3.4,0,0,0,2.14,1.22,3.34,3.34,0,0,0,2.31-.69c1-.81.73-1.67,1.92-2.57.3-.23.84-.63,1.29-.45s.57.84.61,1.06a2.75,2.75,0,0,1-.32,1.72,6.57,6.57,0,0,1-3.32,3,6.13,6.13,0,0,1-2.49.42,6,6,0,0,1-3.7-1.63A6.43,6.43,0,0,1,52.24,38.11Z"/><path id="Tay_phải" data-name="Tay phải" class="cls-1" d="M94.08,56.78a4.15,4.15,0,0,1-.33-3.21,4.39,4.39,0,0,1,2.63-2.34c3.68-1.33,8.58,2.73,11,5.49,1.09,1.25,6,7.18,3.89,11.17-.65,1.25-2.17,2.69-3.77,2.51A3.93,3.93,0,0,1,104.66,68c-.48-1.06-.2-1.64-.43-3a9.61,9.61,0,0,0-1.79-3.9C99.89,58,95.74,59.68,94.08,56.78Z"/><path id="Chân_phải" data-name="Chân phải" class="cls-1" d="M71.1,77.37a4.08,4.08,0,0,1,5.47-5.91L85.37,78c.67.4,3.15,2,3.25,4.31.06,1.38-.74,2.44-1.85,3.76a66.09,66.09,0,0,1-7.15,7.24,3.68,3.68,0,0,1-5.42-4.91l5.51-5.65c-1.27-.93-2.66-1.88-4.17-2.83S72.51,78.11,71.1,77.37Z"/></g></g></svg>