<svg xmlns="http://www.w3.org/2000/svg" viewBox="0 0 111.36 127.83"><defs><style>.cls-1{fill:#5b2510;}.cls-2{fill:#ffd345;}.cls-2,.cls-5,.cls-7{stroke:#5b2510;stroke-miterlimit:10;stroke-width:0.71px;}.cls-3{opacity:0.5;}.cls-4{fill:#ff8039;}.cls-5,.cls-8{fill:#10a956;}.cls-6,.cls-7{fill:#fff;}.cls-8{font-size:10.93px;font-family:iCielPanton-Black, iCiel Panton;font-weight:800;}</style></defs><g id="Layer_2" data-name="Layer 2"><g id="_" data-name="???"><path id="Chân_trái" data-name="Chân trái" class="cls-1" d="M58.87,104.46l-.36,10.84L62.57,117c1.57,1.79,2.27,3.75,1.59,4.77-.55.83-1.89.79-4.56.72a15.77,15.77,0,0,1-5.09-.92c-2-.74-2.55-1.43-2.69-1.64a4.29,4.29,0,0,1-.54-2.88,83.47,83.47,0,0,0,0-11.09Z"/><path id="Thân" class="cls-2" d="M73.43,94.65c6.8-9.6,4.13-21.74,3.31-25a120.63,120.63,0,0,0-9.82-25.72c-3.82-7.32-6.7-10.91-9.84-13.8a29.51,29.51,0,0,0-12.3-7.41,27,27,0,0,0-12.25-.63A28.46,28.46,0,0,0,22,26.57c-9.19,6.25-12.54,16-14.53,21.65A58.77,58.77,0,0,0,4.69,72.6C5.38,80,6.06,87.29,11.13,93.91c7.75,10.11,20.33,11.66,26.53,12.42C40.87,106.73,63.49,108.69,73.43,94.65Z"/><g class="cls-3"><path class="cls-4" d="M35,22.86A167.33,167.33,0,0,1,48.37,62.32a168.14,168.14,0,0,1,3,45.68l-1.07-.7a172.44,172.44,0,0,0-2.72-44.6A171.83,171.83,0,0,0,34.62,22.9Z"/><path class="cls-4" d="M32.27,23.26A408.23,408.23,0,0,0,37,109.77l1.19,0c-2.15-13.36-3.92-28.11-4.92-44.09-1-15.25-1.06-29.46-.66-42.47Z"/><path class="cls-4" d="M24.32,26.43a104.18,104.18,0,0,0,.87,83.32h.64a110.94,110.94,0,0,1-.92-83.64Z"/><path class="cls-4" d="M39.82,22.89A79.64,79.64,0,0,1,63.67,60.15a79.72,79.72,0,0,1-.22,45.32l-1,.53a79,79,0,0,0,.49-45.9A78.8,78.8,0,0,0,38.78,22.82Z"/><path class="cls-4" d="M13.83,36.81a67.08,67.08,0,0,1,40.91-7.29l.74.64A68.34,68.34,0,0,0,13.12,38Z"/><path class="cls-4" d="M6.7,55.43A111.58,111.58,0,0,1,46.8,44.06a109.64,109.64,0,0,1,19,0l.42.81a110.2,110.2,0,0,0-18.87-.08A112,112,0,0,0,6.53,56.29Z"/><path class="cls-4" d="M11.64,66.72a100.7,100.7,0,0,1,41.41-9.63,97.54,97.54,0,0,1,19.17,1.66l.31.88a96.2,96.2,0,0,0-19-1.79A99.14,99.14,0,0,0,12.2,67.25Z"/><path class="cls-4" d="M16.5,81.48a104.55,104.55,0,0,1,41.79-7.89A103.11,103.11,0,0,1,78.16,76l.69,1.16a98.75,98.75,0,0,0-20.08-2.79,101,101,0,0,0-41.49,7.52Z"/></g><path id="Lá_Trái" data-name="Lá Trái" class="cls-5" d="M72.88,55.76c.65,1.57,2.63,7,.22,11.24-1.45,2.58-4.59,4.92-6,6-3.4,2.63-4.24,2.31-7.92,4.83a37.55,37.55,0,0,0-8.87,8.74,27.27,27.27,0,0,0-3.52,9,34.36,34.36,0,0,0-.77,7.57,36.08,36.08,0,0,0,.39,5.06,34.42,34.42,0,0,0,21.06-5.91,29.7,29.7,0,0,0,10-11.4,30.34,30.34,0,0,0,2.73-16.43A35.76,35.76,0,0,0,72.88,55.76Z"/><path id="Lá_phải" data-name="Lá phải" class="cls-5" d="M5.1,56.4a18.15,18.15,0,0,0,1.74,6.73c2.45,5.07,6.87,7.49,12.68,11.1a73.65,73.65,0,0,0,10.07,5.06c2.05.89,4.49,1.85,8.17,3.66a25.79,25.79,0,0,1,6,3.75,22.39,22.39,0,0,1,3.4,3.74A20.52,20.52,0,0,1,51,97.59a9.58,9.58,0,0,1,.51,4.85c-.72,3.35-3.74,5.15-4.6,5.62a40.28,40.28,0,0,1-4.07.88,41.3,41.3,0,0,1-10.3.17c-4.52-.4-7.46-.67-11-2A29.77,29.77,0,0,1,10,99.38,36.75,36.75,0,0,1,2,85.55,38.54,38.54,0,0,1,.43,75.73a33.82,33.82,0,0,1,.76-10A31.64,31.64,0,0,1,5.1,56.4Z"/><ellipse id="Mắt_2" data-name="Mắt 2" class="cls-1" cx="35.32" cy="45.69" rx="4.11" ry="6.72" transform="matrix(1, -0.05, 0.05, 1, -2.22, 1.81)"/><circle id="Má_trái" data-name="Má trái" class="cls-4" cx="62.89" cy="61.03" r="4.66"/><circle id="Má_phải" data-name="Má phải" class="cls-4" cx="30.6" cy="64.3" r="5.3"/><path id="Tay_phải" data-name="Tay phải" class="cls-1" d="M79.82,72.17a21.9,21.9,0,0,0-.56-3.29c-.58-2.3-1.15-3-.93-3.22C79,65.1,86.45,69.23,89,77c1.47,4.52,1.58,11.28-2.12,14.45-1.17,1-3.58,2.38-5.11,1.48s-1.37-3.31-1.37-3.41c.07-1.58.91-2.24,1.66-3.78a13.11,13.11,0,0,0-2.22-13.53Z"/><path id="Chân_phải" data-name="Chân phải" class="cls-1" d="M35.34,106.76a4.46,4.46,0,0,1,8.72,1.3l-.48,12a5.71,5.71,0,0,1-.42,4.51,6.46,6.46,0,0,1-3,2.24,9.57,9.57,0,0,1-3.37,1c-1.49.11-3,.23-3.83-.77a3.64,3.64,0,0,1,0-3.83c.94-.93,1.88-1.87,2.81-2.81a56.57,56.57,0,0,1-.63-7.65A55.28,55.28,0,0,1,35.34,106.76Z"/><ellipse class="cls-6" cx="36.49" cy="43.66" rx="1.47" ry="2.42" transform="translate(-8.06 8.26) rotate(-11.64)"/><path class="cls-7" d="M69.5,16.44c0,4.84,3.29,8.59,5.11,10.34L71.13,38l6.8-9.19a23.26,23.26,0,0,0,13.78,3.49c8.52-.66,18.84-6.69,19.28-15,.48-9-10.89-17-21.06-17C80.32.41,69.52,7.69,69.5,16.44Z"/><path class="cls-1" d="M47.44,40.83l7.66-1.28,3.1,5.3A4.38,4.38,0,0,1,50,46.67C49.18,44.72,48.31,42.78,47.44,40.83Z"/><ellipse class="cls-6" cx="54.27" cy="42.56" rx="1.23" ry="1.72" transform="translate(-12.59 25.65) rotate(-23.91)"/><text class="cls-8" transform="translate(79.58 20.48)">???</text><path class="cls-1" d="M17.15,76.92c9-8.78,10.75-13.89,10.57-17,0-.85-.38-4,1.15-4.93a2.3,2.3,0,0,1,2.36.13c.69.5.67,1.26,1.22,2.87a16.09,16.09,0,0,0,1.08,2.49l8.3-1.23a2.71,2.71,0,0,1,2.72,1.23,2.93,2.93,0,0,1-1.83,3.83L34.29,66A32.83,32.83,0,0,1,33,71.87c-.71,2.18-4.39,13.47-11,14.15-1.84.19-4.51-.36-5.71-2.38C15.11,81.79,15.49,79.14,17.15,76.92Z"/><path class="cls-1" d="M41.54,54.36a26.51,26.51,0,0,1,5.88-.9,25.81,25.81,0,0,1,4.78.26,1.31,1.31,0,0,1,.2,2.49c-1.43-.05-3,0-4.63,0a51,51,0,0,0-5.26.55,1.32,1.32,0,1,1-1-2.44Z"/></g></g></svg>