<svg xmlns="http://www.w3.org/2000/svg" viewBox="0 0 90.12 103.36"><defs><style>.cls-1{fill:#ffd345;}.cls-1,.cls-3,.cls-7,.cls-8{stroke:#5b2510;stroke-miterlimit:10;stroke-width:0.71px;}.cls-2,.cls-4{fill:#ff8039;}.cls-2{opacity:0.48;}.cls-3{fill:#10a956;}.cls-5{fill:#5b2510;}.cls-6,.cls-7{fill:#fff;}.cls-8{fill:#a86e29;}</style></defs><g id="Layer_2" data-name="Layer 2"><g id="Reading"><path class="cls-1" d="M44.4,89.58c-6.91-.1-14.94-.31-23.4-5a25.49,25.49,0,0,1-8.32-6.81c-1-1.29-3.63-5.06-4.88-12.55-1.69-10.09.6-18.3,2.87-26.16,3.81-13.18,9.29-21,10.48-22.69a44.27,44.27,0,0,1,9.33-10C33.92,3.85,38.67.33,45.26.35c6.1,0,10.54,3.07,13.35,5,1.39,1,4.88,3.52,9.78,10.38A73.69,73.69,0,0,1,79.48,37.58c2.2,7.11,5.56,17.93,2.37,30.07C80,74.71,77,78.34,76.11,79.3s-3.64,4-10.19,6.8C57.5,89.7,50.15,89.66,44.4,89.58Z"/><path class="cls-2" d="M42.86.94A55.86,55.86,0,0,0,31,13.76c-7.44,11.15-9,22.14-10.1,29.85a86.07,86.07,0,0,0,.45,27.7,79.87,79.87,0,0,0,4.43,15l.69.41a91.61,91.61,0,0,1-3.91-15.53,93.65,93.65,0,0,1-.29-27.76c1.15-8.28,2.59-18.67,9.49-29.41A55.76,55.76,0,0,1,43.57.88Z"/><path class="cls-2" d="M76.3,30.2a68.17,68.17,0,0,0-13.14-3.74c-5.92-1.06-10.33-1-17.81-1a122.26,122.26,0,0,0-17,1,111.35,111.35,0,0,0-14,2.82l-.57,1.37c3.61-.86,8.4-1.87,14.09-2.68A123.91,123.91,0,0,1,45.4,26.57a93.93,93.93,0,0,1,18,1.31A87.87,87.87,0,0,1,77,31.41C76.77,31,76.53,30.61,76.3,30.2Z"/><path class="cls-2" d="M82,48.35a63.07,63.07,0,0,0-18.79-6.52c-5-.86-9.26-1-17.81-1-3.92,0-7.72.08-12.18.48-2.08.19-3.86.41-4.81.55A79.58,79.58,0,0,0,8.89,47.57c-.12.56-.25,1.11-.37,1.67a90.53,90.53,0,0,1,19.35-5.83A96,96,0,0,1,45.4,42a79.93,79.93,0,0,1,18,1.3,68.58,68.58,0,0,1,18.78,6.83Z"/><path class="cls-2" d="M82.09,64.78a62.82,62.82,0,0,0-18.88-6.59c-5-.86-9.26-1-17.81-1-3.92,0-16.29.93-17,1a87.6,87.6,0,0,0-20.3,5.95c.05.24.1.49.14.78s.06.56.07.81a85.89,85.89,0,0,1,10.9-4,88.6,88.6,0,0,1,8.7-2,96,96,0,0,1,17.53-1.46c6.33-.06,11.41,0,18,1.3a67.73,67.73,0,0,1,18.31,6.64c.05-.23.1-.48.16-.72S82,65,82.09,64.78Z"/><path class="cls-2" d="M78.2,77.2a69.94,69.94,0,0,0-14.74-4.3c-5.94-1-10.4-1-17.82-1-6.53,0-11,.06-17,1a81.87,81.87,0,0,0-15.9,4.23,3.49,3.49,0,0,0,.35.7,3.21,3.21,0,0,0,.76.79,52.59,52.59,0,0,1,5.6-2.17,63.5,63.5,0,0,1,8.7-2A97,97,0,0,1,45.7,73C51.94,73,57,73,63.67,74.32a66.57,66.57,0,0,1,13.47,4.3l.54-.72Z"/><path class="cls-2" d="M64.44,11.34c-.52-.1-1.29-.24-2.23-.39-3.83-.6-7.29-.83-16.57-.76-10.67.09-14,.48-17,1-1.47.27-2.69.54-3.52.74l-.72.91q-.37.45-.75.87c1.09-.28,2.63-.64,4.5-1A87.62,87.62,0,0,1,45.7,11.27a121,121,0,0,1,16.55,1c1.4.19,2.57.38,3.4.51l-.58-.72Z"/><path class="cls-2" d="M43.9.83a103.94,103.94,0,0,0-4.68,15.42c-1.71,7.7-2.06,14.36-2.69,27.36a273.22,273.22,0,0,0-.33,27.6c.29,6.65.81,12.3,1.29,16.56l.76,0c-.36-4.36-.74-10-1-16.67-.46-12.86-.13-22.76,0-27.17.48-11.44.76-18.22,2.53-27.44A131.87,131.87,0,0,1,43.9.83Z"/><path class="cls-2" d="M46.2.83a105.16,105.16,0,0,1,4.68,15.42c1.71,7.7,2.06,14.36,2.68,27.36.44,9.11.8,16.94.34,27.6-.3,6.65-.82,12.3-1.3,16.56l-.75,0c.35-4.36.73-10,1-16.67.45-12.86.13-22.76,0-27.17-.48-11.44-.76-18.22-2.53-27.44A131.87,131.87,0,0,0,46.2.83Z"/><path class="cls-2" d="M47.31.94A56.09,56.09,0,0,1,59.13,13.76c7.45,11.15,9,22.14,10.1,29.85a85.77,85.77,0,0,1-.45,27.7,79.87,79.87,0,0,1-4.43,15l-.68.41a91.61,91.61,0,0,0,3.91-15.53,94,94,0,0,0,.29-27.76C66.72,35.17,65.28,24.78,58.38,14A56,56,0,0,0,46.59.88Z"/><path class="cls-3" d="M10.17,40.8s-.65,2.06-.9,3.28A18.74,18.74,0,0,0,9,45.94a20.56,20.56,0,0,0,.23,4.89c.56,3.2,2.9,8.58,6.7,14.08,0,0,4.09,5.93,8.16,8.19l.75.4c1.06.55,2.07,1,8.87,4.28,4.77,2.35,6.63,3.31,8.25,5.52a14.08,14.08,0,0,1,2.44,6.28,36.3,36.3,0,0,1-21.1-3C19.44,84.7,12.42,81.44,9.17,74.15,7.41,70.21,7.27,66.28,7,58.83a44.62,44.62,0,0,1,.34-8.17A40.5,40.5,0,0,1,10.17,40.8Z"/><path class="cls-3" d="M80.34,40.4a43,43,0,0,1,.06,9.9c-.6,5.41-1.4,10.33-4.84,14.93-2.65,3.54-5.8,5.3-10.41,7.87-1.64.91-1.36.63-9.61,4.68-4.77,2.34-6.64,3.31-8.26,5.52a13.93,13.93,0,0,0-2.43,6.28,49.55,49.55,0,0,0,21.09-3c6.21-2.36,12.32-4.69,15.67-10.67,2.79-5,2.33-10.3,1.41-20.94a87.88,87.88,0,0,0-2-12C80.76,41.9,80.51,41,80.34,40.4Z"/><ellipse id="Má_phải" data-name="Má phải" class="cls-4" cx="63.96" cy="41.45" rx="5.88" ry="6.2"/><ellipse id="Má_phải-2" data-name="Má phải" class="cls-4" cx="25.92" cy="41.45" rx="5.88" ry="6.2"/><g id="Biểu_cảm_2" data-name="Biểu cảm 2"><ellipse class="cls-5" cx="35.17" cy="29.82" rx="4.84" ry="5.85"/><path id="Miệng" class="cls-5" d="M39.78,45.28A3,3,0,0,1,39.39,43c.16-.48.6-1.13,1.16-1.15.25,0,.54.11,1.11.77,1,1.2.89,1.76,1.57,2.49a3.49,3.49,0,0,0,2.68,1.1,3.78,3.78,0,0,0,2.48-1.27c.67-.74.52-1.19,1.38-2.07.4-.42,1-1,1.55-.89s.71,1.13.74,1.34a3.18,3.18,0,0,1-.35,1.88,6.53,6.53,0,0,1-8.92,3A6.66,6.66,0,0,1,39.78,45.28Z"/><ellipse class="cls-6" cx="36.46" cy="32.4" rx="1.29" ry="1.56"/></g><g id="Biểu_cảm_2-2" data-name="Biểu cảm 2"><ellipse class="cls-5" cx="56.2" cy="29.82" rx="4.84" ry="5.85"/><ellipse class="cls-6" cx="54.91" cy="32.4" rx="1.29" ry="1.56"/></g><g id="Book"><path class="cls-7" d="M16.66,70.85V48.93A37.13,37.13,0,0,1,45.41,63.21q-.1,10.17-.2,20.35c-4.65-2.38-9.61-4.77-14.89-7.1C25.62,74.38,21.05,72.52,16.66,70.85Z"/><path class="cls-7" d="M74.16,70.85V48.93A37.13,37.13,0,0,0,45.41,63.21q.11,10.17.2,20.35c4.65-2.38,9.61-4.77,14.89-7.1C65.2,74.38,69.77,72.52,74.16,70.85Z"/><path class="cls-8" d="M11.56,56.39Q11.76,74,12,91.56,19.33,93.41,27.33,96c6.52,2.13,12.62,4.44,18.3,6.83q0-17.31,0-34.61A51.14,51.14,0,0,0,30.05,59,45.21,45.21,0,0,0,11.56,56.39Z"/><path class="cls-8" d="M79.81,56.39Q79.6,74,79.4,91.56,72,93.42,64,96c-6.55,2.13-12.69,4.44-18.41,6.83q0-17.31,0-34.61A51.08,51.08,0,0,1,61.32,59,45.2,45.2,0,0,1,79.81,56.39Z"/></g><g id="Tay"><path id="Tay_phải" data-name="Tay phải" class="cls-5" d="M80.6,49.88a26.27,26.27,0,0,0,.28-3.31,27.39,27.39,0,0,0-.14-3.63c1,.61,8.71,5.36,9.34,13.76.64,8.57-6.34,17.1-11.49,17-1.24,0-3.36-.58-4.26-2.21-1.07-2,.18-4.37.43-4.81a6.46,6.46,0,0,1,2.61-2.54,16.82,16.82,0,0,0,4.11-2.27A9.26,9.26,0,0,0,84.1,59.3C85.32,57,83.73,53.27,80.6,49.88Z"/></g><g id="Tay-2" data-name="Tay"><path id="Tay_phải-2" data-name="Tay phải" class="cls-5" d="M9.52,49.88a26.27,26.27,0,0,1-.28-3.31,27.39,27.39,0,0,1,.14-3.63C8.35,43.55.67,48.3,0,56.7c-.64,8.57,6.34,17.1,11.49,17,1.24,0,3.36-.58,4.26-2.21,1.07-2-.18-4.37-.43-4.81a6.46,6.46,0,0,0-2.61-2.54,16.82,16.82,0,0,1-4.11-2.27A9.26,9.26,0,0,1,6,59.3C4.8,57,6.39,53.27,9.52,49.88Z"/></g></g></g></svg>